<mxfile host="app.diagrams.net" modified="2023-04-03T13:49:51.728Z" agent="Mozilla/5.0 (X11; Linux x86_64) AppleWebKit/537.36 (KHTML, like Gecko) Chrome/111.0.0.0 Safari/537.36" etag="nnepwiH1tWbacnLd2xpi" version="21.1.4" type="device">
  <diagram name="Page-1" id="g0uOa1a4THdfqu9AtexK">
    <mxGraphModel dx="2049" dy="1013" grid="1" gridSize="10" guides="1" tooltips="1" connect="1" arrows="1" fold="1" page="1" pageScale="1" pageWidth="1169" pageHeight="827" math="0" shadow="0">
      <root>
        <mxCell id="0" />
        <mxCell id="1" parent="0" />
        <mxCell id="5LaHNBrZTchasM7ReVpy-1" value="" style="rounded=1;whiteSpace=wrap;html=1;" vertex="1" parent="1">
          <mxGeometry x="250" y="110" width="600" height="570" as="geometry" />
        </mxCell>
        <mxCell id="5LaHNBrZTchasM7ReVpy-2" value="&lt;font style=&quot;font-size: 20px;&quot;&gt;Exterior&lt;/font&gt;" style="text;html=1;align=center;verticalAlign=middle;resizable=0;points=[];autosize=1;strokeColor=none;fillColor=none;" vertex="1" parent="1">
          <mxGeometry x="80" y="60" width="90" height="40" as="geometry" />
        </mxCell>
        <mxCell id="5LaHNBrZTchasM7ReVpy-3" value="&lt;font style=&quot;font-size: 20px;&quot;&gt;Interior&lt;/font&gt;" style="text;html=1;strokeColor=none;fillColor=none;align=center;verticalAlign=middle;whiteSpace=wrap;rounded=0;" vertex="1" parent="1">
          <mxGeometry x="520" y="120" width="60" height="30" as="geometry" />
        </mxCell>
        <mxCell id="5LaHNBrZTchasM7ReVpy-4" value="Colonia" style="text;html=1;align=center;verticalAlign=middle;resizable=0;points=[];autosize=1;strokeColor=none;fillColor=none;" vertex="1" parent="1">
          <mxGeometry x="520" y="110" width="60" height="30" as="geometry" />
        </mxCell>
        <mxCell id="5LaHNBrZTchasM7ReVpy-5" value="" style="shape=cylinder3;whiteSpace=wrap;html=1;boundedLbl=1;backgroundOutline=1;size=15;rotation=90;" vertex="1" parent="1">
          <mxGeometry x="820" y="230" width="60" height="80" as="geometry" />
        </mxCell>
        <mxCell id="5LaHNBrZTchasM7ReVpy-6" value="" style="shape=cylinder3;whiteSpace=wrap;html=1;boundedLbl=1;backgroundOutline=1;size=15;rotation=90;" vertex="1" parent="1">
          <mxGeometry x="820" y="304" width="60" height="80" as="geometry" />
        </mxCell>
        <mxCell id="5LaHNBrZTchasM7ReVpy-7" value="" style="shape=cylinder3;whiteSpace=wrap;html=1;boundedLbl=1;backgroundOutline=1;size=15;rotation=90;" vertex="1" parent="1">
          <mxGeometry x="820" y="450" width="60" height="80" as="geometry" />
        </mxCell>
        <mxCell id="5LaHNBrZTchasM7ReVpy-8" value="Salida 1" style="text;html=1;strokeColor=none;fillColor=none;align=center;verticalAlign=middle;whiteSpace=wrap;rounded=0;" vertex="1" parent="1">
          <mxGeometry x="860" y="210" width="60" height="30" as="geometry" />
        </mxCell>
        <mxCell id="5LaHNBrZTchasM7ReVpy-10" value="Salida 2" style="text;html=1;strokeColor=none;fillColor=none;align=center;verticalAlign=middle;whiteSpace=wrap;rounded=0;" vertex="1" parent="1">
          <mxGeometry x="860" y="380" width="60" height="30" as="geometry" />
        </mxCell>
        <mxCell id="5LaHNBrZTchasM7ReVpy-11" value="Entrada 1" style="text;html=1;strokeColor=none;fillColor=none;align=center;verticalAlign=middle;whiteSpace=wrap;rounded=0;" vertex="1" parent="1">
          <mxGeometry x="860" y="530" width="60" height="30" as="geometry" />
        </mxCell>
        <mxCell id="5LaHNBrZTchasM7ReVpy-12" value="ALMACÉN DE COMIDA" style="ellipse;whiteSpace=wrap;html=1;aspect=fixed;" vertex="1" parent="1">
          <mxGeometry x="290" y="140" width="200" height="200" as="geometry" />
        </mxCell>
        <mxCell id="5LaHNBrZTchasM7ReVpy-13" value="ZONA PARA COMER" style="ellipse;whiteSpace=wrap;html=1;aspect=fixed;" vertex="1" parent="1">
          <mxGeometry x="290" y="450" width="200" height="200" as="geometry" />
        </mxCell>
        <mxCell id="5LaHNBrZTchasM7ReVpy-14" value="ZONA DE DESCANSO" style="ellipse;whiteSpace=wrap;html=1;aspect=fixed;" vertex="1" parent="1">
          <mxGeometry x="600" y="460" width="200" height="200" as="geometry" />
        </mxCell>
        <mxCell id="5LaHNBrZTchasM7ReVpy-15" value="ZONA DE INSTRUCCIÓN" style="ellipse;whiteSpace=wrap;html=1;aspect=fixed;" vertex="1" parent="1">
          <mxGeometry x="600" y="140" width="200" height="200" as="geometry" />
        </mxCell>
        <mxCell id="5LaHNBrZTchasM7ReVpy-16" value="MÁX: &lt;b&gt;&lt;font style=&quot;font-size: 24px;&quot;&gt;10&lt;/font&gt;&lt;/b&gt;" style="text;html=1;strokeColor=none;fillColor=none;align=center;verticalAlign=middle;whiteSpace=wrap;rounded=0;" vertex="1" parent="1">
          <mxGeometry x="350" y="280" width="60" height="30" as="geometry" />
        </mxCell>
        <mxCell id="5LaHNBrZTchasM7ReVpy-17" value="&lt;b&gt;ALLOWED: worker&amp;nbsp;&lt;/b&gt;" style="text;html=1;strokeColor=none;fillColor=none;align=left;verticalAlign=middle;whiteSpace=wrap;rounded=0;" vertex="1" parent="1">
          <mxGeometry x="320" y="190" width="160" height="30" as="geometry" />
        </mxCell>
        <mxCell id="5LaHNBrZTchasM7ReVpy-18" value="&lt;b&gt;ALLOWED: soldier&amp;nbsp;&lt;/b&gt;" style="text;html=1;strokeColor=none;fillColor=none;align=left;verticalAlign=middle;whiteSpace=wrap;rounded=0;" vertex="1" parent="1">
          <mxGeometry x="630" y="180" width="160" height="30" as="geometry" />
        </mxCell>
        <mxCell id="5LaHNBrZTchasM7ReVpy-19" value="REFUGIO" style="ellipse;whiteSpace=wrap;html=1;aspect=fixed;" vertex="1" parent="1">
          <mxGeometry x="450" y="295" width="200" height="200" as="geometry" />
        </mxCell>
        <mxCell id="5LaHNBrZTchasM7ReVpy-20" value="&lt;b&gt;ALLOWED: child&amp;nbsp;&lt;/b&gt;" style="text;html=1;strokeColor=none;fillColor=none;align=left;verticalAlign=middle;whiteSpace=wrap;rounded=0;" vertex="1" parent="1">
          <mxGeometry x="480" y="350" width="160" height="30" as="geometry" />
        </mxCell>
        <mxCell id="5LaHNBrZTchasM7ReVpy-21" value="&lt;b&gt;ALLOWED: ALL&amp;nbsp;&lt;/b&gt;" style="text;html=1;strokeColor=none;fillColor=none;align=left;verticalAlign=middle;whiteSpace=wrap;rounded=0;" vertex="1" parent="1">
          <mxGeometry x="330" y="495" width="160" height="30" as="geometry" />
        </mxCell>
        <mxCell id="5LaHNBrZTchasM7ReVpy-22" value="&lt;b&gt;ALLOWED: ALL&amp;nbsp;&lt;/b&gt;" style="text;html=1;strokeColor=none;fillColor=none;align=left;verticalAlign=middle;whiteSpace=wrap;rounded=0;" vertex="1" parent="1">
          <mxGeometry x="650" y="495" width="160" height="30" as="geometry" />
        </mxCell>
        <mxCell id="5LaHNBrZTchasM7ReVpy-23" value="MÁX: &lt;b&gt;&lt;font style=&quot;font-size: 24px;&quot;&gt;1&lt;/font&gt;&lt;/b&gt;" style="text;html=1;strokeColor=none;fillColor=none;align=center;verticalAlign=middle;whiteSpace=wrap;rounded=0;" vertex="1" parent="1">
          <mxGeometry x="810" y="255" width="60" height="30" as="geometry" />
        </mxCell>
        <mxCell id="5LaHNBrZTchasM7ReVpy-24" value="MÁX: &lt;b&gt;&lt;font style=&quot;font-size: 24px;&quot;&gt;1&lt;/font&gt;&lt;/b&gt;" style="text;html=1;strokeColor=none;fillColor=none;align=center;verticalAlign=middle;whiteSpace=wrap;rounded=0;" vertex="1" parent="1">
          <mxGeometry x="810" y="329" width="60" height="30" as="geometry" />
        </mxCell>
        <mxCell id="5LaHNBrZTchasM7ReVpy-25" value="MÁX: &lt;b&gt;&lt;font style=&quot;font-size: 24px;&quot;&gt;1&lt;/font&gt;&lt;/b&gt;" style="text;html=1;strokeColor=none;fillColor=none;align=center;verticalAlign=middle;whiteSpace=wrap;rounded=0;" vertex="1" parent="1">
          <mxGeometry x="810" y="475" width="60" height="30" as="geometry" />
        </mxCell>
        <mxCell id="5LaHNBrZTchasM7ReVpy-26" value="" style="shape=image;html=1;verticalAlign=top;verticalLabelPosition=bottom;labelBackgroundColor=#ffffff;imageAspect=0;aspect=fixed;image=https://cdn0.iconfinder.com/data/icons/phosphor-regular-vol-4/256/tree-evergreen-128.png" vertex="1" parent="1">
          <mxGeometry x="70" y="167" width="128" height="128" as="geometry" />
        </mxCell>
        <mxCell id="5LaHNBrZTchasM7ReVpy-27" value="" style="shape=image;html=1;verticalAlign=top;verticalLabelPosition=bottom;labelBackgroundColor=#ffffff;imageAspect=0;aspect=fixed;image=https://cdn0.iconfinder.com/data/icons/phosphor-regular-vol-4/256/tree-evergreen-128.png" vertex="1" parent="1">
          <mxGeometry x="50" y="380" width="128" height="128" as="geometry" />
        </mxCell>
        <mxCell id="5LaHNBrZTchasM7ReVpy-28" value="" style="shape=image;html=1;verticalAlign=top;verticalLabelPosition=bottom;labelBackgroundColor=#ffffff;imageAspect=0;aspect=fixed;image=https://cdn0.iconfinder.com/data/icons/phosphor-regular-vol-4/256/tree-evergreen-128.png" vertex="1" parent="1">
          <mxGeometry x="940" y="39" width="128" height="128" as="geometry" />
        </mxCell>
        <mxCell id="5LaHNBrZTchasM7ReVpy-29" value="" style="shape=image;html=1;verticalAlign=top;verticalLabelPosition=bottom;labelBackgroundColor=#ffffff;imageAspect=0;aspect=fixed;image=https://cdn0.iconfinder.com/data/icons/phosphor-regular-vol-4/256/tree-evergreen-128.png" vertex="1" parent="1">
          <mxGeometry x="940" y="640" width="80" height="80" as="geometry" />
        </mxCell>
        <mxCell id="5LaHNBrZTchasM7ReVpy-30" value="" style="shape=image;html=1;verticalAlign=top;verticalLabelPosition=bottom;labelBackgroundColor=#ffffff;imageAspect=0;aspect=fixed;image=https://cdn0.iconfinder.com/data/icons/phosphor-regular-vol-4/256/tree-evergreen-128.png" vertex="1" parent="1">
          <mxGeometry x="140" y="295" width="73" height="73" as="geometry" />
        </mxCell>
        <mxCell id="5LaHNBrZTchasM7ReVpy-31" value="" style="shape=image;html=1;verticalAlign=top;verticalLabelPosition=bottom;labelBackgroundColor=#ffffff;imageAspect=0;aspect=fixed;image=https://cdn0.iconfinder.com/data/icons/phosphor-regular-vol-4/256/tree-evergreen-128.png" vertex="1" parent="1">
          <mxGeometry x="70" y="620" width="158" height="158" as="geometry" />
        </mxCell>
      </root>
    </mxGraphModel>
  </diagram>
</mxfile>
